# xmcd
#
# Track frame offsets: 
#        150
#        10857
#        20544
#        33680
#        47090
#        58934
#        72987
#        84752
#        104906
#        128676
#        143529
#        158849
#        179850
#        194334
#        204802
#        221895
#        241191
#
# Disc length: 3442 seconds
#
# Revision: 2
# Processed by: cddbd v1.5.2PL0 Copyright (c) Steve Scherf et al.
# Submitted via: ExactAudioCopyFreeDBPlugin 1.0
#
DISCID=f50d7011
DTITLE=JOHNNY HALLYDAY - Les 50 plus belles ballades - CD 2 - Ballades
DTITLE=Country
DYEAR=2007
DGENRE=Chanson francaise
TTITLE0=Si j'étais un charpentier  (1966)
TTITLE1=J'ai besoin d'un ami  (1973)
TTITLE2=Reste avec moi cette nuit  (1975)
TTITLE3=Né pour vivre sans amour  (1976)
TTITLE4=J'en mettrai pas ma main au feu  (1972)
TTITLE5=L'étranger  (1976)
TTITLE6=Les larmes de Belinda  (1975)
TTITLE7=Revoilà ma solitude  (1978)
TTITLE8=Joe, la ville et moi  (1972)
TTITLE9=Je t'aime à l'infini  (1975)
TTITLE10=Le chanteur sans amour  (1980)
TTITLE11=Un rêve à faire  (1995)
TTITLE12=La fille aux cheveux clairs  (1970)
TTITLE13=La première fois  (1975)
TTITLE14=Quand ça vous brise le cœur  (1984)
TTITLE15=Il neige sur Nashville  (1977)
TTITLE16=À propos de mon père  (1974)
EXTD=
EXTT0=
EXTT1=
EXTT2=
EXTT3=
EXTT4=
EXTT5=
EXTT6=
EXTT7=
EXTT8=
EXTT9=
EXTT10=
EXTT11=
EXTT12=
EXTT13=
EXTT14=
EXTT15=
EXTT16=
PLAYORDER=
